PathFileType	4	(x/y/z)	S01_M20_T12.trc
DataRate	CameraRate	NumFrames	NumMarkers	Units	OrigDataRate	OrigDataStartFrame	OrigNumFrames
240	240	10	51	mm	240	217	432
Frame#	Time	Sternum			R.Acromium			L.Acromium			Top.Head			R.ASIS			L.ASIS			R.PSIS			L.PSIS			R.Great.Tro			L.Great.Tro			R.Iliac.Crest			L.Iliac.Crest			V.Sacral			R.Thigh.Upper.Post			R.Thigh.Lower.Ant			R.Thigh.Lower.Post			R.Thigh.Upper.Ant			R.Knee.Lat			R.Knee.Med			R.Shank.Upper.Post			R.Shank.Lower.Ant			R.Shank.Lower.Post			R.Shank.Upper.Ant			R.Ankle.Lat			R.Ankle.Med			R.Heel.Upper			R.Heel.Med			R.Heel.Lat			R.Toe.Lat			R.Toe.Med			R.Toe.Tip			L.Thigh.Upper.Post			L.Thigh.Lower.Ant			L.Thigh.Lower.Post			L.Thigh.Upper.Ant			L.Knee.Lat			L.Knee.Med			L.Shank.Upper.Post			L.Shank.Lower.Ant			L.Shank.Lower.Post			L.Shank.Upper.Ant			L.Ankle.Lat			L.Ankle.Med			L.Heel.Upper			L.Heel.Med			L.Heel.Lat			L.Toe.Lat			L.Toe.Med			L.Toe.Tip			Cervical.Spine			Back			
		X1	Y1	Z1	X2	Y2	Z2	X3	Y3	Z3	X4	Y4	Z4	X5	Y5	Z5	X6	Y6	Z6	X7	Y7	Z7	X8	Y8	Z8	X9	Y9	Z9	X10	Y10	Z10	X11	Y11	Z11	X12	Y12	Z12	X13	Y13	Z13	X14	Y14	Z14	X15	Y15	Z15	X16	Y16	Z16	X17	Y17	Z17	X18	Y18	Z18	X19	Y19	Z19	X20	Y20	Z20	X21	Y21	Z21	X22	Y22	Z22	X23	Y23	Z23	X24	Y24	Z24	X25	Y25	Z25	X26	Y26	Z26	X27	Y27	Z27	X28	Y28	Z28	X29	Y29	Z29	X30	Y30	Z30	X31	Y31	Z31	X32	Y32	Z32	X33	Y33	Z33	X34	Y34	Z34	X35	Y35	Z35	X36	Y36	Z36	X37	Y37	Z37	X38	Y38	Z38	X39	Y39	Z39	X40	Y40	Z40	X41	Y41	Z41	X42	Y42	Z42	X43	Y43	Z43	X44	Y44	Z44	X45	Y45	Z45	X46	Y46	Z46	X47	Y47	Z47	X48	Y48	Z48	X49	Y49	Z49	X50	Y50	Z50	X51	Y51	Z51	

217	0.9	-154.44	1291.6	338.82	-247.16	1530.4	539.52	-288.82	1566.3	214.39	-204.31	1858.2	380.12	-201.26	1029.5	483.56	-198.21	1051	217.57	-438.15	1079.9	386.8	-438.43	1080.2	284.26	-285.19	974.31	557.71	-293.6	1005.8	131.18	-286.85	1123.6	555.08	-310.84	1136	149.1	-450.18	1042.9	331.23	-326.06	671.92	516.47	-264.84	596.85	482.41	-332.47	586.13	491.48	-253.56	683.6	508.97	-320.86	520.13	480.96	-316.88	529.12	337.1	-405.08	371.81	495.15	-360.45	282.58	447.25	-421.61	304.01	479.86	-347.07	352.09	468.79	-456.65	105.35	431.01	-423.77	112.7	338.99	-528.76	79.349	370.28	-513.58	49.453	342	-519.12	49.376	406.52	-330.43	34.604	468.76	-296.25	40.946	344.42	-233.25	54.349	401.2	-199.17	726.13	136.2	-92.936	696.52	129.86	-152.26	648.42	150.4	-148.34	773.31	115.94	-74.863	592.55	134.86	-42.731	597.55	279.64	-120.28	458	112.7	-56.484	368.64	131.02	-117.6	380.17	113.58	-57.985	445.55	125.81	-130.18	164.83	137.46	-95.723	173.83	233.87	-198.4	128.3	188.59	-181.79	102.86	220.19	-189.28	104.05	157.65	14.064	99.599	107.5	50.335	107.46	226.14	107.46	123.03	169.09	-350.1	1607.9	393.46	-447.77	1298.1	389.83
218	0.90417	-149.37	1290.7	338.86	-242.05	1529.6	539.44	-283.23	1565.5	214.23	-198.98	1857.5	379.94	-196.36	1028.8	483.56	-192.99	1050.1	217.47	-433.21	1079.1	386.59	-433.42	1079.4	284.06	-280.53	973.78	557.67	-288.37	1005	131.1	-282.12	1122.9	555.01	-305.67	1135	148.94	-445.18	1042.1	331.03	-323.27	671.73	516.51	-262.54	596.32	482.4	-330.2	585.98	491.55	-250.78	682.99	508.91	-319.16	519.82	481	-315.03	528.91	337.09	-404.05	371.87	495.16	-359.74	282.45	447.3	-420.84	304.12	479.83	-346.11	351.91	468.86	-456.51	105.45	430.96	-423.58	112.76	338.95	-528.64	79.511	370.2	-513.45	49.601	341.95	-519.05	49.553	406.45	-330.44	34.563	468.76	-296.18	40.945	344.44	-233.18	54.215	401.25	-193.99	725.25	136.71	-87.736	695.7	130.48	-147.04	647.61	151.09	-143.19	772.41	116.35	-69.204	591.92	135.66	-37.509	597	280.52	-111.93	456.39	113.24	-46.312	368.36	131.58	-107.61	378.62	114.01	-49.415	445.22	126.51	-115.36	162.9	137.57	-81.498	172.47	234.05	-182.9	124.66	188.39	-165.71	99.52	220.04	-173.01	100.66	157.45	30.517	101.17	108.09	66.097	109.64	226.88	123.05	126.7	170.07	-344.78	1607.2	393.25	-442.58	1297.4	389.44
219	0.90833	-144.28	1289.8	338.89	-236.92	1528.8	539.34	-277.65	1564.6	214.05	-193.63	1856.7	379.76	-191.44	1028.2	483.56	-187.73	1049.3	217.36	-428.25	1078.3	386.38	-428.39	1078.6	283.85	-275.85	973.23	557.63	-283.12	1004.1	131.03	-277.39	1122.2	554.94	-300.48	1134	148.77	-440.15	1041.3	330.83	-320.46	671.54	516.55	-260.2	595.78	482.38	-327.91	585.82	491.61	-247.98	682.37	508.84	-317.44	519.51	481.05	-313.17	528.7	337.08	-403.01	371.92	495.18	-359.02	282.31	447.36	-420.07	304.24	479.81	-345.13	351.73	468.93	-456.37	105.55	430.91	-423.39	112.82	338.91	-528.52	79.681	370.12	-513.34	49.756	341.89	-518.97	49.737	406.39	-330.44	34.532	468.77	-296.11	40.941	344.46	-233.11	54.078	401.3	-188.87	724.3	137.2	-82.601	694.8	131.07	-141.89	646.73	151.75	-138.08	771.44	116.75	-63.629	591.19	136.44	-32.374	596.33	281.39	-103.63	454.75	113.79	-36.237	368.1	132.17	-97.695	377.09	114.46	-40.936	444.86	127.22	-100.57	161.09	137.74	-67.364	171.22	234.28	-167.42	121.15	188.24	-149.67	96.329	219.95	-156.76	97.417	157.31	46.847	102.92	108.77	81.693	112	227.73	138.46	130.54	171.17	-339.46	1606.5	393.01	-437.39	1296.8	389.04
220	0.9125	-139.18	1288.8	338.91	-231.79	1528	539.23	-272.06	1563.8	213.85	-188.26	1855.8	379.56	-186.48	1027.5	483.57	-182.44	1048.4	217.25	-423.28	1077.5	386.16	-423.33	1077.7	283.64	-271.14	972.65	557.59	-277.85	1003.2	130.95	-272.65	1121.5	554.86	-295.3	1132.9	148.59	-435.11	1040.4	330.62	-317.62	671.34	516.58	-257.84	595.24	482.37	-325.58	585.66	491.68	-245.16	681.75	508.76	-315.7	519.2	481.11	-311.28	528.49	337.06	-401.96	371.99	495.2	-358.29	282.18	447.42	-419.28	304.37	479.79	-344.13	351.55	469	-456.23	105.66	430.85	-423.2	112.89	338.87	-528.39	79.861	370.04	-513.22	49.92	341.83	-518.89	49.928	406.32	-330.44	34.511	468.8	-296.03	40.936	344.48	-233.05	53.941	401.35	-183.81	723.29	137.68	-77.53	693.8	131.65	-136.82	645.77	152.4	-133.02	770.39	117.13	-58.137	590.39	137.21	-27.327	595.55	282.25	-95.402	453.09	114.34	-26.263	367.85	132.79	-87.846	375.56	114.92	-32.549	444.48	127.95	-85.85	159.39	137.97	-53.324	170.08	234.57	-151.97	117.78	188.13	-133.66	93.29	219.91	-140.53	94.329	157.22	63.045	104.82	109.55	97.117	114.53	228.68	153.67	134.53	172.38	-334.12	1605.8	392.76	-432.2	1296.1	388.62
221	0.91667	-134.07	1287.8	338.92	-226.65	1527.1	539.1	-266.46	1562.8	213.64	-182.87	1855	379.35	-181.5	1026.8	483.59	-177.12	1047.4	217.13	-418.29	1076.6	385.94	-418.25	1076.7	283.42	-266.41	972.05	557.56	-272.55	1002.2	130.87	-267.92	1120.8	554.78	-290.1	1131.8	148.4	-430.04	1039.5	330.42	-314.75	671.13	516.62	-255.44	594.69	482.36	-323.22	585.5	491.74	-242.31	681.12	508.69	-313.94	518.89	481.16	-309.37	528.28	337.04	-400.89	372.06	495.22	-357.54	282.04	447.48	-418.48	304.5	479.76	-343.12	351.37	469.07	-456.08	105.78	430.8	-423	112.96	338.84	-528.26	80.051	369.96	-513.1	50.093	341.76	-518.81	50.126	406.25	-330.44	34.501	468.84	-295.94	40.93	344.51	-232.98	53.801	401.4	-178.8	722.21	138.14	-72.521	692.71	132.2	-131.83	644.73	153.02	-128.01	769.26	117.5	-52.728	589.5	137.97	-22.368	594.65	283.08	-87.239	451.4	114.9	-16.391	367.61	133.43	-78.071	374.03	115.4	-24.257	444.08	128.68	-71.188	157.8	138.26	-39.381	169.06	234.91	-136.56	114.55	188.09	-117.7	90.407	219.95	-124.34	91.397	157.19	79.098	106.87	110.43	112.36	117.21	229.73	168.67	138.66	173.69	-328.76	1605	392.49	-427.01	1295.3	388.2
222	0.92083	-128.94	1286.8	338.92	-221.49	1526.2	538.96	-260.86	1561.9	213.41	-177.45	1854	379.13	-176.5	1026	483.62	-171.76	1046.5	217.01	-413.28	1075.7	385.71	-413.14	1075.7	283.19	-261.66	971.43	557.52	-267.24	1001.2	130.79	-263.18	1120	554.69	-284.9	1130.7	148.21	-424.95	1038.5	330.21	-311.85	670.91	516.65	-253.01	594.13	482.35	-320.83	585.33	491.81	-239.43	680.48	508.61	-312.15	518.57	481.21	-307.42	528.08	337.02	-399.81	372.13	495.23	-356.77	281.91	447.54	-417.67	304.65	479.74	-342.09	351.19	469.15	-455.92	105.9	430.75	-422.79	113.04	338.81	-528.12	80.253	369.87	-512.98	50.278	341.69	-518.72	50.333	406.17	-330.43	34.499	468.9	-295.86	40.924	344.54	-232.92	53.659	401.45	-173.84	721.07	138.57	-67.571	691.54	132.73	-126.9	643.63	153.61	-123.04	768.07	117.85	-47.398	588.52	138.71	-17.495	593.64	283.89	-79.146	449.69	115.47	-6.6246	367.38	134.09	-68.374	372.52	115.9	-16.062	443.66	129.42	-56.598	156.32	138.61	-25.54	168.15	235.32	-121.19	111.46	188.1	-101.79	87.683	220.05	-108.19	88.624	157.23	94.993	109.06	111.4	127.42	120.05	230.86	183.45	142.91	175.09	-323.4	1604.2	392.21	-421.82	1294.5	387.76
223	0.925	-123.8	1285.8	338.9	-216.33	1525.3	538.8	-255.24	1560.9	213.16	-172.02	1853.1	378.89	-171.47	1025.3	483.65	-166.36	1045.5	216.89	-408.25	1074.8	385.47	-408.01	1074.7	282.96	-256.88	970.78	557.49	-261.91	1000.1	130.71	-258.44	1119.1	554.6	-279.68	1129.5	148.02	-419.84	1037.5	330	-308.93	670.69	516.67	-250.54	593.56	482.34	-318.41	585.15	491.87	-236.53	679.84	508.54	-310.33	518.26	481.27	-305.45	527.86	336.99	-398.7	372.21	495.25	-355.99	281.77	447.61	-416.84	304.8	479.72	-341.03	351	469.23	-455.76	106.03	430.69	-422.57	113.12	338.77	-527.97	80.468	369.78	-512.86	50.474	341.61	-518.63	50.549	406.09	-330.42	34.505	468.97	-295.76	40.92	344.58	-232.85	53.514	401.5	-168.93	719.87	138.99	-62.676	690.29	133.25	-122.05	642.45	154.18	-118.1	766.8	118.19	-42.145	587.47	139.44	-12.707	592.52	284.68	-71.125	447.95	116.04	3.0325	367.15	134.78	-58.759	371.02	116.41	-7.964	443.21	130.17	-42.091	154.95	139.03	-11.803	167.36	235.78	-105.89	108.52	188.19	-85.961	85.121	220.23	-92.108	86.009	157.34	110.72	111.38	112.45	142.28	123.02	232.09	198.01	147.28	176.58	-318.03	1603.3	391.9	-416.63	1293.7	387.32
224	0.92917	-118.64	1284.7	338.87	-211.15	1524.3	538.62	-249.62	1559.8	212.9	-166.57	1852.1	378.63	-166.42	1024.5	483.68	-160.94	1044.5	216.77	-403.2	1073.8	385.23	-402.84	1073.6	282.71	-252.09	970.11	557.46	-256.54	999.05	130.63	-253.69	1118.3	554.5	-274.43	1128.3	147.83	-414.71	1036.5	329.79	-305.97	670.45	516.7	-248.05	592.99	482.34	-315.96	584.96	491.93	-233.6	679.19	508.48	-308.48	517.94	481.32	-303.44	527.64	336.97	-397.58	372.3	495.26	-355.18	281.63	447.68	-415.99	304.96	479.7	-339.96	350.82	469.31	-455.6	106.17	430.64	-422.34	113.22	338.74	-527.82	80.695	369.69	-512.74	50.684	341.53	-518.54	50.776	406	-330.42	34.516	469.04	-295.67	40.918	344.62	-232.79	53.365	401.55	-164.07	718.6	139.38	-57.832	688.95	133.74	-117.25	641.2	154.73	-113.2	765.47	118.51	-36.966	586.34	140.16	-8.0001	591.3	285.45	-63.179	446.19	116.61	12.578	366.94	135.48	-49.23	369.52	116.95	0.034603	442.75	130.92	-27.678	153.69	139.52	1.8247	166.69	236.31	-90.645	105.72	188.35	-70.211	82.723	220.49	-76.098	83.555	157.53	126.26	113.82	113.59	156.93	126.12	233.39	212.33	151.75	178.13	-312.65	1602.4	391.58	-411.44	1292.9	386.87
225	0.93333	-113.46	1283.6	338.83	-205.97	1523.3	538.43	-243.99	1558.8	212.62	-161.11	1851	378.36	-161.34	1023.7	483.72	-155.47	1043.5	216.66	-398.14	1072.8	384.97	-397.65	1072.5	282.46	-247.27	969.42	557.44	-251.16	997.91	130.55	-248.93	1117.4	554.4	-269.16	1127.1	147.64	-409.55	1035.5	329.57	-302.99	670.21	516.71	-245.52	592.4	482.34	-313.47	584.77	491.98	-230.63	678.53	508.42	-306.6	517.61	481.38	-301.39	527.4	336.94	-396.43	372.39	495.27	-354.36	281.5	447.76	-415.12	305.13	479.67	-338.85	350.63	469.4	-455.43	106.31	430.58	-422.1	113.32	338.71	-527.66	80.938	369.59	-512.61	50.909	341.45	-518.44	51.014	405.91	-330.4	34.53	469.13	-295.57	40.919	344.66	-232.72	53.213	401.59	-159.25	717.28	139.74	-53.036	687.54	134.22	-112.52	639.89	155.25	-108.33	764.07	118.82	-31.858	585.14	140.86	-3.372	589.97	286.2	-55.309	444.41	117.2	22.008	366.73	136.21	-39.791	368.04	117.5	7.9332	442.26	131.68	-13.371	152.54	140.07	15.337	166.13	236.92	-75.482	103.08	188.59	-54.557	80.492	220.84	-60.18	81.258	157.81	141.6	116.36	114.8	171.38	129.34	234.76	226.42	156.3	179.74	-307.25	1601.5	391.25	-406.25	1292	386.4
226	0.9375	-108.26	1282.4	338.79	-200.78	1522.3	538.21	-238.36	1557.7	212.32	-155.62	1850	378.07	-156.24	1022.9	483.77	-149.98	1042.5	216.55	-393.05	1071.8	384.71	-392.42	1071.4	282.2	-242.44	968.7	557.42	-245.74	996.73	130.48	-244.17	1116.5	554.29	-263.85	1125.8	147.45	-404.37	1034.4	329.33	-299.98	669.95	516.72	-242.95	591.81	482.34	-310.95	584.56	492.03	-227.63	677.86	508.38	-304.69	517.28	481.44	-299.29	527.15	336.92	-395.26	372.49	495.27	-353.51	281.36	447.83	-414.23	305.3	479.65	-337.72	350.44	469.49	-455.25	106.47	430.52	-421.85	113.43	338.68	-527.49	81.196	369.49	-512.48	51.15	341.35	-518.34	51.265	405.81	-330.39	34.544	469.22	-295.46	40.924	344.7	-232.65	53.057	401.64	-154.47	715.9	140.09	-48.282	686.05	134.68	-107.84	638.51	155.74	-103.49	762.61	119.12	-26.814	583.86	141.55	1.1823	588.56	286.93	-47.516	442.61	117.79	31.321	366.53	136.95	-30.447	366.56	118.08	15.731	441.74	132.43	0.81525	151.49	140.7	28.726	165.68	237.58	-60.41	100.6	188.92	-39.015	78.428	221.29	-44.373	79.119	158.19	156.72	118.99	116.08	185.6	132.66	236.19	240.26	160.91	181.4	-301.85	1600.5	390.89	-401.06	1291.1	385.93
